<?xml version="1.0" encoding="UTF-8"?>
<svg xmlns="http://www.w3.org/2000/svg" xmlns:xlink="http://www.w3.org/1999/xlink" width="4800" height="3300" viewBox="0 0 4800 3300">
<defs>
<radialGradient id="radial-pattern-0" gradientUnits="userSpaceOnUse" cx="0" cy="0" fx="0" fy="0" r="3317.6" gradientTransform="matrix(1, 0, 0, 1, 2400, 1650)">
<stop offset="0" stop-color="rgb(100%, 100%, 100%)" stop-opacity="1"/>
<stop offset="0.25" stop-color="rgb(100%, 100%, 100%)" stop-opacity="1"/>
<stop offset="0.34375" stop-color="rgb(99.827576%, 99.943542%, 99.987793%)" stop-opacity="1"/>
<stop offset="0.363281" stop-color="rgb(99.557495%, 99.787903%, 99.874878%)" stop-opacity="1"/>
<stop offset="0.402344" stop-color="rgb(99.259949%, 99.491882%, 99.572754%)" stop-opacity="1"/>
<stop offset="0.417969" stop-color="rgb(98.921204%, 99.189758%, 99.279785%)" stop-opacity="1"/>
<stop offset="0.433594" stop-color="rgb(98.718262%, 98.924255%, 98.985291%)" stop-opacity="1"/>
<stop offset="0.449219" stop-color="rgb(98.454285%, 98.646545%, 98.698425%)" stop-opacity="1"/>
<stop offset="0.464844" stop-color="rgb(98.054504%, 98.271179%, 98.324585%)" stop-opacity="1"/>
<stop offset="0.496094" stop-color="rgb(97.645569%, 97.753906%, 97.755432%)" stop-opacity="1"/>
<stop offset="0.511719" stop-color="rgb(97.285461%, 97.299194%, 97.257996%)" stop-opacity="1"/>
<stop offset="0.523438" stop-color="rgb(97.039795%, 97.071838%, 97.033691%)" stop-opacity="1"/>
<stop offset="0.527344" stop-color="rgb(96.853638%, 97.006226%, 97.015381%)" stop-opacity="1"/>
<stop offset="0.53125" stop-color="rgb(96.661377%, 96.946716%, 97.0047%)" stop-opacity="1"/>
<stop offset="0.535156" stop-color="rgb(96.469116%, 96.887207%, 96.994019%)" stop-opacity="1"/>
<stop offset="0.539062" stop-color="rgb(96.311951%, 96.755981%, 96.871948%)" stop-opacity="1"/>
<stop offset="0.542969" stop-color="rgb(96.19751%, 96.542358%, 96.617126%)" stop-opacity="1"/>
<stop offset="0.546875" stop-color="rgb(96.089172%, 96.316528%, 96.340942%)" stop-opacity="1"/>
<stop offset="0.550781" stop-color="rgb(95.980835%, 96.087646%, 96.064758%)" stop-opacity="1"/>
<stop offset="0.554688" stop-color="rgb(95.773315%, 95.77179%, 95.701599%)" stop-opacity="1"/>
<stop offset="0.566406" stop-color="rgb(95.568848%, 95.506287%, 95.40863%)" stop-opacity="1"/>
<stop offset="0.570312" stop-color="rgb(95.433044%, 95.365906%, 95.266724%)" stop-opacity="1"/>
<stop offset="0.574219" stop-color="rgb(95.248413%, 95.213318%, 95.123291%)" stop-opacity="1"/>
<stop offset="0.578125" stop-color="rgb(95.051575%, 95.057678%, 94.979858%)" stop-opacity="1"/>
<stop offset="0.582031" stop-color="rgb(94.85321%, 94.902039%, 94.837952%)" stop-opacity="1"/>
<stop offset="0.585938" stop-color="rgb(94.654846%, 94.71283%, 94.650269%)" stop-opacity="1"/>
<stop offset="0.589844" stop-color="rgb(94.451904%, 94.476318%, 94.396973%)" stop-opacity="1"/>
<stop offset="0.59375" stop-color="rgb(94.250488%, 94.223022%, 94.122314%)" stop-opacity="1"/>
<stop offset="0.597656" stop-color="rgb(94.047546%, 93.969727%, 93.84613%)" stop-opacity="1"/>
<stop offset="0.601562" stop-color="rgb(93.817139%, 93.710327%, 93.572998%)" stop-opacity="1"/>
<stop offset="0.605469" stop-color="rgb(93.537903%, 93.435669%, 93.295288%)" stop-opacity="1"/>
<stop offset="0.609375" stop-color="rgb(93.241882%, 93.156433%, 93.019104%)" stop-opacity="1"/>
<stop offset="0.613281" stop-color="rgb(92.944336%, 92.877197%, 92.74292%)" stop-opacity="1"/>
<stop offset="0.617188" stop-color="rgb(92.674255%, 92.630005%, 92.480469%)" stop-opacity="1"/>
<stop offset="0.621094" stop-color="rgb(92.454529%, 92.445374%, 92.23938%)" stop-opacity="1"/>
<stop offset="0.625" stop-color="rgb(92.259216%, 92.288208%, 92.012024%)" stop-opacity="1"/>
<stop offset="0.628906" stop-color="rgb(92.062378%, 92.132568%, 91.781616%)" stop-opacity="1"/>
<stop offset="0.632812" stop-color="rgb(91.867065%, 91.954041%, 91.523743%)" stop-opacity="1"/>
<stop offset="0.636719" stop-color="rgb(91.667175%, 91.726685%, 91.200256%)" stop-opacity="1"/>
<stop offset="0.640625" stop-color="rgb(91.467285%, 91.477966%, 90.844727%)" stop-opacity="1"/>
<stop offset="0.644531" stop-color="rgb(91.265869%, 91.226196%, 90.487671%)" stop-opacity="1"/>
<stop offset="0.648438" stop-color="rgb(91.047668%, 90.9729%, 90.168762%)" stop-opacity="1"/>
<stop offset="0.652344" stop-color="rgb(90.78064%, 90.708923%, 89.938354%)" stop-opacity="1"/>
<stop offset="0.65625" stop-color="rgb(90.487671%, 90.440369%, 89.762878%)" stop-opacity="1"/>
<stop offset="0.660156" stop-color="rgb(90.193176%, 90.171814%, 89.585876%)" stop-opacity="1"/>
<stop offset="0.664062" stop-color="rgb(89.898682%, 89.888%, 89.373779%)" stop-opacity="1"/>
<stop offset="0.667969" stop-color="rgb(89.601135%, 89.555359%, 89.053345%)" stop-opacity="1"/>
<stop offset="0.671875" stop-color="rgb(89.305115%, 89.193726%, 88.665771%)" stop-opacity="1"/>
<stop offset="0.675781" stop-color="rgb(89.007568%, 88.830566%, 88.276672%)" stop-opacity="1"/>
<stop offset="0.679688" stop-color="rgb(88.710022%, 88.48114%, 87.895203%)" stop-opacity="1"/>
<stop offset="0.683594" stop-color="rgb(88.415527%, 88.17749%, 87.533569%)" stop-opacity="1"/>
<stop offset="0.6875" stop-color="rgb(88.12561%, 87.908936%, 87.188721%)" stop-opacity="1"/>
<stop offset="0.691406" stop-color="rgb(87.834167%, 87.638855%, 86.842346%)" stop-opacity="1"/>
<stop offset="0.695312" stop-color="rgb(87.541199%, 87.353516%, 86.491394%)" stop-opacity="1"/>
<stop offset="0.699219" stop-color="rgb(87.245178%, 86.978149%, 86.105347%)" stop-opacity="1"/>
<stop offset="0.703125" stop-color="rgb(86.947632%, 86.534119%, 85.690308%)" stop-opacity="1"/>
<stop offset="0.707031" stop-color="rgb(86.650085%, 86.091614%, 85.27832%)" stop-opacity="1"/>
<stop offset="0.710938" stop-color="rgb(86.338806%, 85.65979%, 84.872437%)" stop-opacity="1"/>
<stop offset="0.714844" stop-color="rgb(85.940552%, 85.290527%, 84.503174%)" stop-opacity="1"/>
<stop offset="0.71875" stop-color="rgb(85.464478%, 84.979248%, 84.165955%)" stop-opacity="1"/>
<stop offset="0.722656" stop-color="rgb(84.988403%, 84.666443%, 83.830261%)" stop-opacity="1"/>
<stop offset="0.726562" stop-color="rgb(84.516907%, 84.350586%, 83.494568%)" stop-opacity="1"/>
<stop offset="0.730469" stop-color="rgb(84.089661%, 83.959961%, 83.123779%)" stop-opacity="1"/>
<stop offset="0.734375" stop-color="rgb(83.702087%, 83.502197%, 82.723999%)" stop-opacity="1"/>
<stop offset="0.738281" stop-color="rgb(83.31604%, 83.047485%, 82.324219%)" stop-opacity="1"/>
<stop offset="0.742188" stop-color="rgb(82.929993%, 82.594299%, 81.92749%)" stop-opacity="1"/>
<stop offset="0.746094" stop-color="rgb(82.545471%, 82.141113%, 81.491089%)" stop-opacity="1"/>
<stop offset="0.75" stop-color="rgb(82.162476%, 81.687927%, 81.015015%)" stop-opacity="1"/>
<stop offset="0.753906" stop-color="rgb(81.77948%, 81.237793%, 80.543518%)" stop-opacity="1"/>
<stop offset="0.757812" stop-color="rgb(81.39801%, 80.789185%, 80.073547%)" stop-opacity="1"/>
<stop offset="0.761719" stop-color="rgb(80.92804%, 80.32074%, 79.606628%)" stop-opacity="1"/>
<stop offset="0.765625" stop-color="rgb(80.366516%, 79.829407%, 79.141235%)" stop-opacity="1"/>
<stop offset="0.769531" stop-color="rgb(79.801941%, 79.341125%, 78.68042%)" stop-opacity="1"/>
<stop offset="0.773438" stop-color="rgb(79.238892%, 78.85437%, 78.222656%)" stop-opacity="1"/>
<stop offset="0.777344" stop-color="rgb(78.717041%, 78.343201%, 77.71759%)" stop-opacity="1"/>
<stop offset="0.78125" stop-color="rgb(78.240967%, 77.801514%, 77.159119%)" stop-opacity="1"/>
<stop offset="0.785156" stop-color="rgb(77.772522%, 77.261353%, 76.597595%)" stop-opacity="1"/>
<stop offset="0.789062" stop-color="rgb(77.305603%, 76.724243%, 76.042175%)" stop-opacity="1"/>
<stop offset="0.792969" stop-color="rgb(76.800537%, 76.179504%, 75.489807%)" stop-opacity="1"/>
<stop offset="0.796875" stop-color="rgb(76.252747%, 75.627136%, 74.940491%)" stop-opacity="1"/>
<stop offset="0.800781" stop-color="rgb(75.697327%, 75.076294%, 74.397278%)" stop-opacity="1"/>
<stop offset="0.804688" stop-color="rgb(75.143433%, 74.530029%, 73.858643%)" stop-opacity="1"/>
<stop offset="0.808594" stop-color="rgb(74.591064%, 74.017334%, 73.365784%)" stop-opacity="1"/>
<stop offset="0.8125" stop-color="rgb(74.041748%, 73.551941%, 72.930908%)" stop-opacity="1"/>
<stop offset="0.816406" stop-color="rgb(73.492432%, 73.095703%, 72.511292%)" stop-opacity="1"/>
<stop offset="0.820312" stop-color="rgb(72.944641%, 72.644043%, 72.094727%)" stop-opacity="1"/>
<stop offset="0.824219" stop-color="rgb(72.366333%, 72.128296%, 71.606445%)" stop-opacity="1"/>
<stop offset="0.828125" stop-color="rgb(71.743774%, 71.5271%, 71.020508%)" stop-opacity="1"/>
<stop offset="0.832031" stop-color="rgb(71.110535%, 70.901489%, 70.405579%)" stop-opacity="1"/>
<stop offset="0.835938" stop-color="rgb(70.478821%, 70.281982%, 69.798279%)" stop-opacity="1"/>
<stop offset="0.839844" stop-color="rgb(69.850159%, 69.665527%, 69.195557%)" stop-opacity="1"/>
<stop offset="0.84375" stop-color="rgb(69.223022%, 69.05365%, 68.600464%)" stop-opacity="1"/>
<stop offset="0.847656" stop-color="rgb(68.597412%, 68.44635%, 68.009949%)" stop-opacity="1"/>
<stop offset="0.851562" stop-color="rgb(67.974854%, 67.845154%, 67.425537%)" stop-opacity="1"/>
<stop offset="0.855469" stop-color="rgb(67.329407%, 67.219543%, 66.818237%)" stop-opacity="1"/>
<stop offset="0.859375" stop-color="rgb(66.641235%, 66.552734%, 66.169739%)" stop-opacity="1"/>
<stop offset="0.863281" stop-color="rgb(65.937805%, 65.872192%, 65.509033%)" stop-opacity="1"/>
<stop offset="0.867188" stop-color="rgb(65.237427%, 65.194702%, 64.854431%)" stop-opacity="1"/>
<stop offset="0.871094" stop-color="rgb(64.526367%, 64.511108%, 64.175415%)" stop-opacity="1"/>
<stop offset="0.875" stop-color="rgb(63.792419%, 63.804626%, 63.441467%)" stop-opacity="1"/>
<stop offset="0.878906" stop-color="rgb(63.049316%, 63.093567%, 62.686157%)" stop-opacity="1"/>
<stop offset="0.882812" stop-color="rgb(62.310791%, 62.387085%, 61.941528%)" stop-opacity="1"/>
<stop offset="0.886719" stop-color="rgb(61.575317%, 61.688232%, 61.235046%)" stop-opacity="1"/>
<stop offset="0.890625" stop-color="rgb(60.842896%, 60.998535%, 60.603333%)" stop-opacity="1"/>
<stop offset="0.894531" stop-color="rgb(60.115051%, 60.314941%, 60.018921%)" stop-opacity="1"/>
<stop offset="0.898438" stop-color="rgb(59.391785%, 59.638977%, 59.437561%)" stop-opacity="1"/>
<stop offset="0.902344" stop-color="rgb(58.668518%, 58.964539%, 58.834839%)" stop-opacity="1"/>
<stop offset="0.90625" stop-color="rgb(57.9422%, 58.288574%, 58.164978%)" stop-opacity="1"/>
<stop offset="0.910156" stop-color="rgb(57.217407%, 57.615662%, 57.458496%)" stop-opacity="1"/>
<stop offset="0.914062" stop-color="rgb(56.497192%, 56.948853%, 56.758118%)" stop-opacity="1"/>
<stop offset="0.917969" stop-color="rgb(55.766296%, 56.251526%, 56.054688%)" stop-opacity="1"/>
<stop offset="0.921875" stop-color="rgb(55.000305%, 55.444336%, 55.317688%)" stop-opacity="1"/>
<stop offset="0.925781" stop-color="rgb(54.211426%, 54.566956%, 54.562378%)" stop-opacity="1"/>
<stop offset="0.929688" stop-color="rgb(53.430176%, 53.700256%, 53.814697%)" stop-opacity="1"/>
<stop offset="0.933594" stop-color="rgb(52.630615%, 52.845764%, 53.071594%)" stop-opacity="1"/>
<stop offset="0.9375" stop-color="rgb(51.750183%, 52.017212%, 52.314758%)" stop-opacity="1"/>
<stop offset="0.941406" stop-color="rgb(50.808716%, 51.208496%, 51.551819%)" stop-opacity="1"/>
<stop offset="0.945312" stop-color="rgb(49.87793%, 50.410461%, 50.796509%)" stop-opacity="1"/>
<stop offset="0.949219" stop-color="rgb(48.956299%, 49.601746%, 50.032043%)" stop-opacity="1"/>
<stop offset="0.953125" stop-color="rgb(48.048401%, 48.701477%, 49.179077%)" stop-opacity="1"/>
<stop offset="0.957031" stop-color="rgb(47.15271%, 47.731018%, 48.257446%)" stop-opacity="1"/>
<stop offset="0.960938" stop-color="rgb(46.266174%, 46.774292%, 47.348022%)" stop-opacity="1"/>
<stop offset="0.964844" stop-color="rgb(45.378113%, 45.826721%, 46.447754%)" stop-opacity="1"/>
<stop offset="0.96875" stop-color="rgb(44.398499%, 44.854736%, 45.504761%)" stop-opacity="1"/>
<stop offset="0.972656" stop-color="rgb(43.339539%, 43.861389%, 44.526672%)" stop-opacity="1"/>
<stop offset="0.976562" stop-color="rgb(42.297363%, 42.883301%, 43.563843%)" stop-opacity="1"/>
<stop offset="0.980469" stop-color="rgb(41.268921%, 41.917419%, 42.61322%)" stop-opacity="1"/>
<stop offset="0.984375" stop-color="rgb(40.2771%, 40.921021%, 41.641235%)" stop-opacity="1"/>
<stop offset="0.988281" stop-color="rgb(39.315796%, 39.900208%, 40.652466%)" stop-opacity="1"/>
<stop offset="0.992188" stop-color="rgb(38.368225%, 38.894653%, 39.678955%)" stop-opacity="1"/>
<stop offset="0.996094" stop-color="rgb(37.435913%, 37.905884%, 38.719177%)" stop-opacity="1"/>
<stop offset="1" stop-color="rgb(36.972046%, 37.417603%, 38.244629%)" stop-opacity="1"/>
</radialGradient>
</defs>

<path fill-rule="nonzero" fill="rgb(93.890381%, 40.179443%, 10.197449%)" fill-opacity="1" d="M 3312.101562 1342.890625 C 3329.21875 1350.941406 3345.679688 1359.878906 3361.488281 1369.628906 L 3244.949219 1119.050781 C 3248.691406 1110.769531 3250.828125 1101.609375 3250.828125 1091.941406 C 3250.828125 1062.75 3231.828125 1038.03125 3205.53125 1029.378906 C 3234.238281 1088.539062 3251.339844 1153.328125 3254.988281 1220.109375 L 3312.101562 1342.890625 "/>
<path fill-rule="nonzero" fill="rgb(95.111084%, 52.934265%, 7.621765%)" fill-opacity="1" d="M 2455.070312 1934.511719 C 2447.691406 1914.710938 2431.101562 1899.460938 2410.46875 1893.929688 L 2410.46875 1607.660156 C 2398.671875 1596.320312 2387.539062 1584.390625 2376.96875 1572.019531 L 2376.96875 1893.761719 C 2354.960938 1899.421875 2337.390625 1916.089844 2330.578125 1937.609375 L 2013.441406 1893.871094 L 2012.339844 1888.628906 L 2012.078125 1886.589844 C 1936.28125 1908.488281 1853.289062 1908.421875 1772.828125 1881.339844 C 1741.171875 1870.691406 1711.730469 1856.460938 1684.769531 1839.289062 L 1692.058594 1855.558594 L 1595.140625 1865.410156 C 1599.660156 1875.988281 1603.488281 1886.851562 1606.75 1897.910156 L 1708.570312 1887.558594 L 1849.359375 2095.921875 C 1858.46875 2089.429688 1867.71875 2083.160156 1877.179688 2077.230469 L 1751.75 1891.609375 L 1985.488281 1923.839844 L 2005.140625 2017.621094 C 2015.789062 2014.171875 2026.53125 2010.96875 2037.390625 2008.148438 L 2020.738281 1928.699219 L 2328.960938 1971.210938 C 2331.949219 1985.308594 2339.46875 1997.699219 2349.898438 2006.890625 L 2345.421875 2014.851562 C 2350.761719 2016.46875 2356.101562 2017.988281 2361.429688 2019.78125 C 2366.949219 2021.640625 2372.269531 2023.808594 2377.691406 2025.820312 L 2379.859375 2021.96875 C 2384.230469 2022.890625 2388.75 2023.378906 2393.390625 2023.378906 C 2426.199219 2023.378906 2453.320312 1999.378906 2458.359375 1967.988281 L 2620.480469 1937.179688 C 2617.269531 1926.460938 2614.441406 1915.628906 2611.960938 1904.691406 L 2455.070312 1934.511719 "/>
<path fill-rule="nonzero" fill="rgb(95.111084%, 52.934265%, 7.621765%)" fill-opacity="1" d="M 2302.589844 1502.789062 L 2323.148438 1495.660156 C 2317.53125 1485.851562 2312.261719 1475.839844 2307.320312 1465.679688 L 2301.289062 1467.769531 C 2302.25 1479.371094 2302.648438 1491.050781 2302.589844 1502.789062 "/>
<path fill-rule="nonzero" fill="rgb(95.111084%, 52.934265%, 7.621765%)" fill-opacity="1" d="M 1714.019531 1145.339844 L 1925.410156 953.671875 C 1926.109375 954.578125 1926.828125 955.460938 1927.570312 956.320312 L 1891.28125 1099.179688 C 1902.71875 1098.910156 1914.191406 1098.941406 1925.730469 1099.660156 L 1957.160156 975.960938 C 1963.53125 978.019531 1970.320312 979.148438 1977.371094 979.148438 C 1991.148438 979.148438 2003.859375 974.808594 2014.441406 967.570312 C 2008.859375 957.789062 2003.5 947.890625 1998.589844 937.761719 C 1962.339844 944.75 1924.871094 946.550781 1887.179688 943.109375 L 1634.96875 1171.78125 C 1638.101562 1178.441406 1641.128906 1185.148438 1643.941406 1191.949219 C 1665.621094 1173.910156 1689.191406 1158.398438 1714.019531 1145.339844 "/>
<path fill-rule="nonzero" fill="rgb(95.111084%, 52.934265%, 7.621765%)" fill-opacity="1" d="M 2133.070312 1107.488281 L 2079.261719 1140.839844 C 2090.828125 1146.550781 2102.011719 1152.769531 2112.808594 1159.460938 L 2161.75 1129.128906 C 2151.878906 1122.25 2142.339844 1115.011719 2133.070312 1107.488281 "/>
<path fill-rule="nonzero" fill="rgb(35.241699%, 17.301941%, 57.18689%)" fill-opacity="1" d="M 2345.421875 2014.851562 L 2133.710938 2390.730469 C 2128.351562 2388.789062 2122.691406 2387.5 2116.789062 2387.011719 L 2037.390625 2008.148438 C 2026.53125 2010.96875 2015.789062 2014.171875 2005.140625 2017.621094 L 2080.78125 2378.539062 L 1877.179688 2077.230469 C 1867.71875 2083.160156 1858.46875 2089.429688 1849.359375 2095.921875 L 2046.46875 2387.621094 L 1920.460938 2294.851562 C 1926.429688 2311.859375 1931.210938 2329.308594 1934.851562 2347.058594 L 2049.058594 2431.128906 C 2046.730469 2437.871094 2045.398438 2445.078125 2045.398438 2452.609375 C 2045.398438 2489 2074.898438 2518.5 2111.289062 2518.5 C 2147.671875 2518.5 2177.171875 2489 2177.171875 2452.609375 C 2177.171875 2436.300781 2171.199219 2421.390625 2161.378906 2409.890625 L 2377.691406 2025.820312 C 2372.269531 2023.808594 2366.949219 2021.640625 2361.429688 2019.78125 C 2356.101562 2017.988281 2350.761719 2016.46875 2345.421875 2014.851562 "/>
<path fill-rule="nonzero" fill="rgb(35.241699%, 17.301941%, 57.18689%)" fill-opacity="1" d="M 1451.699219 1430.949219 C 1456.078125 1430.789062 1460.351562 1430.21875 1464.46875 1429.25 L 1499.671875 1483.578125 C 1500.421875 1466.039062 1502.28125 1448.429688 1505.410156 1430.820312 L 1494.128906 1413.398438 C 1505.421875 1402.910156 1513.050781 1388.550781 1514.808594 1372.390625 L 1520.691406 1371.398438 C 1524.949219 1358.859375 1529.941406 1346.789062 1535.28125 1334.96875 L 1509.898438 1339.238281 C 1509.011719 1337.148438 1507.988281 1335.121094 1506.890625 1333.140625 L 1565.429688 1280.058594 C 1587.429688 1246.578125 1613.878906 1216.941406 1643.941406 1191.949219 C 1641.128906 1185.148438 1638.101562 1178.441406 1634.96875 1171.78125 L 1483.621094 1309 C 1473.628906 1302.890625 1461.921875 1299.300781 1449.339844 1299.300781 C 1412.949219 1299.300781 1383.460938 1328.800781 1383.460938 1365.179688 C 1383.460938 1390.589844 1397.859375 1412.601562 1418.921875 1423.589844 L 1378.710938 1692.300781 C 1389.621094 1694.328125 1400.519531 1697.070312 1411.371094 1700.398438 L 1451.699219 1430.949219 "/>
<path fill-rule="nonzero" fill="rgb(35.133362%, 7.557678%, 10.540771%)" fill-opacity="1" d="M 1400.199219 1775.03125 C 1391.78125 1751.71875 1383.921875 1728.78125 1376.609375 1706.300781 L 1362.78125 1798.71875 C 1374.921875 1794.789062 1386.890625 1790.421875 1398.640625 1785.5 L 1400.199219 1775.03125 "/>
<path fill-rule="nonzero" fill="rgb(35.133362%, 7.557678%, 10.540771%)" fill-opacity="1" d="M 1411.371094 1700.398438 C 1400.519531 1697.070312 1389.621094 1694.328125 1378.710938 1692.300781 L 1376.609375 1706.300781 C 1383.921875 1728.78125 1391.78125 1751.71875 1400.199219 1775.03125 L 1411.371094 1700.398438 "/>
<path fill-rule="nonzero" fill="rgb(25.413513%, 72.555542%, 23.535156%)" fill-opacity="1" d="M 1482.648438 1972.550781 L 1439.21875 1940.570312 C 1444.179688 1932.671875 1447.519531 1923.660156 1448.75 1913.980469 L 1455.488281 1913.289062 C 1448.28125 1896.890625 1441.328125 1880.550781 1434.660156 1864.308594 C 1423.96875 1851.058594 1408.320312 1841.980469 1390.46875 1840.089844 L 1398.640625 1785.5 C 1386.890625 1790.421875 1374.921875 1794.789062 1362.78125 1798.71875 L 1355.71875 1845.890625 C 1333.210938 1856.371094 1317.570312 1879.128906 1317.570312 1905.589844 C 1317.570312 1941.980469 1347.070312 1971.480469 1383.460938 1971.480469 C 1394.589844 1971.480469 1405.070312 1968.691406 1414.261719 1963.808594 L 1501.511719 2028.039062 C 1504.269531 2027.769531 1507.019531 2027.511719 1509.78125 2027.300781 C 1500.390625 2009.058594 1491.359375 1990.800781 1482.648438 1972.550781 "/>
<path fill-rule="nonzero" fill="rgb(25.413513%, 72.555542%, 23.535156%)" fill-opacity="1" d="M 1509.78125 2027.300781 C 1523.058594 2026.238281 1536.398438 2025.601562 1549.851562 2025.898438 C 1551.699219 2025.929688 1553.570312 2026.058594 1555.429688 2026.121094 L 1482.648438 1972.550781 C 1491.359375 1990.800781 1500.390625 2009.058594 1509.78125 2027.300781 "/>
<path fill-rule="nonzero" fill="rgb(25.413513%, 72.555542%, 23.535156%)" fill-opacity="1" d="M 1434.660156 1864.308594 C 1441.328125 1880.550781 1448.28125 1896.890625 1455.488281 1913.289062 L 1606.75 1897.910156 C 1603.488281 1886.851562 1599.660156 1875.988281 1595.140625 1865.410156 L 1444.449219 1880.730469 C 1442.011719 1874.75 1438.648438 1869.261719 1434.660156 1864.308594 "/>
<path fill-rule="nonzero" fill="rgb(35.133362%, 7.557678%, 10.540771%)" fill-opacity="1" d="M 1998.589844 937.761719 C 1984.699219 909.199219 1973.628906 879.300781 1965.378906 848.53125 C 1934.730469 854.179688 1911.488281 880.988281 1911.488281 913.269531 C 1911.488281 915.769531 1911.660156 918.238281 1911.929688 920.671875 L 1887.179688 943.109375 C 1924.871094 946.550781 1962.339844 944.75 1998.589844 937.761719 "/>
<path fill-rule="nonzero" fill="rgb(35.133362%, 7.557678%, 10.540771%)" fill-opacity="1" d="M 1643.941406 1191.949219 C 1613.878906 1216.941406 1587.429688 1246.578125 1565.429688 1280.058594 L 1648.828125 1204.449219 C 1647.238281 1200.269531 1645.648438 1196.078125 1643.941406 1191.949219 "/>
<path fill-rule="nonzero" fill="rgb(35.133362%, 7.557678%, 10.540771%)" fill-opacity="1" d="M 1675.238281 1311.398438 L 1535.28125 1334.96875 C 1529.941406 1346.789062 1524.949219 1358.859375 1520.691406 1371.398438 L 1677.988281 1344.910156 C 1677.480469 1333.679688 1676.578125 1322.5 1675.238281 1311.398438 "/>
<path fill-rule="nonzero" fill="rgb(35.133362%, 7.557678%, 10.540771%)" fill-opacity="1" d="M 1586.621094 1620.269531 L 1592.039062 1632.378906 C 1618.058594 1596.410156 1639.238281 1556.039062 1654.238281 1511.851562 L 1599.601562 1576.210938 L 1505.410156 1430.820312 C 1502.28125 1448.429688 1500.421875 1466.039062 1499.671875 1483.578125 L 1583.019531 1612.25 L 1586.621094 1620.269531 "/>
<path fill-rule="nonzero" fill="rgb(93.890381%, 40.179443%, 10.197449%)" fill-opacity="1" d="M 1750.679688 1857.640625 L 1915.351562 1677.011719 C 1925.398438 1683.21875 1937.199219 1686.859375 1949.890625 1686.859375 C 1950.839844 1686.859375 1951.761719 1686.761719 1952.699219 1686.71875 L 1978.621094 1889.070312 Z M 1623.660156 1620.980469 L 1884 1620.980469 C 1884 1632.488281 1886.96875 1643.300781 1892.148438 1652.710938 L 1721.679688 1839.710938 Z M 1851.578125 1331.210938 L 1926.640625 1559.398438 C 1912.570312 1564.710938 1900.808594 1574.691406 1893.230469 1587.46875 L 1633.988281 1587.46875 Z M 2015.769531 1620.980469 C 2015.769531 1614.789062 2014.859375 1608.820312 2013.261719 1603.148438 L 2302.589844 1502.789062 C 2302.648438 1491.050781 2302.25 1479.371094 2301.289062 1467.769531 L 1995.761719 1573.75 C 1986.378906 1564.628906 1974.300781 1558.328125 1960.820312 1556.078125 L 1884 1322.550781 L 2296.851562 1442.699219 C 2291.371094 1429.851562 2286.441406 1416.78125 2282.058594 1403.5 L 1898.949219 1292 L 2112.808594 1159.460938 C 2102.011719 1152.769531 2090.828125 1146.550781 2079.261719 1140.839844 L 1884.609375 1261.46875 L 1925.730469 1099.660156 C 1914.191406 1098.941406 1902.71875 1098.910156 1891.28125 1099.179688 L 1844.609375 1282.871094 L 1675.238281 1311.398438 C 1676.578125 1322.5 1677.480469 1333.679688 1677.988281 1344.910156 L 1815.679688 1321.71875 L 1654.238281 1511.851562 C 1639.238281 1556.039062 1618.058594 1596.410156 1592.039062 1632.378906 L 1684.769531 1839.289062 C 1711.730469 1856.460938 1741.171875 1870.691406 1772.828125 1881.339844 C 1853.289062 1908.421875 1936.28125 1908.488281 2012.078125 1886.589844 L 1985.179688 1676.550781 C 2003.550781 1664.859375 2015.769531 1644.371094 2015.769531 1620.980469 "/>
<path fill-rule="nonzero" fill="rgb(93.890381%, 40.179443%, 10.197449%)" fill-opacity="1" d="M 1714.019531 1145.339844 C 1689.191406 1158.398438 1665.621094 1173.910156 1643.941406 1191.949219 C 1645.648438 1196.078125 1647.238281 1200.269531 1648.828125 1204.449219 L 1714.019531 1145.339844 "/>
<path fill-rule="nonzero" fill="rgb(85.55603%, 11.463928%, 15.751648%)" fill-opacity="1" d="M 1758.921875 2175.929688 C 1755.429688 2179.761719 1751.929688 2183.589844 1748.550781 2187.53125 C 1744.621094 2192.070312 1740.859375 2196.78125 1737.070312 2201.449219 L 1934.851562 2347.058594 C 1931.210938 2329.308594 1926.429688 2311.859375 1920.460938 2294.851562 L 1758.921875 2175.929688 "/>
<path fill-rule="nonzero" fill="rgb(90.803528%, 12.324524%, 16.902161%)" fill-opacity="1" d="M 1758.921875 2175.929688 L 1606.601562 2063.800781 C 1605.558594 2067.28125 1604.660156 2070.78125 1603.488281 2074.261719 C 1601.890625 2079.011719 1600.21875 2083.71875 1598.398438 2088.300781 C 1597.28125 2091.160156 1596.011719 2093.921875 1594.808594 2096.71875 L 1737.070312 2201.449219 C 1740.859375 2196.78125 1744.621094 2192.070312 1748.550781 2187.53125 C 1751.929688 2183.589844 1755.429688 2179.761719 1758.921875 2175.929688 "/>
<path fill-rule="nonzero" fill="rgb(90.803528%, 12.324524%, 16.902161%)" fill-opacity="1" d="M 1501.511719 2028.039062 L 1515.558594 2038.378906 C 1513.628906 2034.691406 1511.691406 2030.988281 1509.78125 2027.300781 C 1507.019531 2027.511719 1504.269531 2027.769531 1501.511719 2028.039062 "/>
<path fill-rule="nonzero" fill="rgb(90.803528%, 12.324524%, 16.902161%)" fill-opacity="1" d="M 1603.488281 2074.261719 C 1604.660156 2070.78125 1605.558594 2067.28125 1606.601562 2063.800781 L 1555.429688 2026.121094 C 1553.570312 2026.058594 1551.699219 2025.929688 1549.851562 2025.898438 C 1536.398438 2025.601562 1523.058594 2026.238281 1509.78125 2027.300781 C 1511.691406 2030.988281 1513.628906 2034.691406 1515.558594 2038.378906 L 1594.808594 2096.71875 C 1596.011719 2093.921875 1597.28125 2091.160156 1598.398438 2088.300781 C 1600.21875 2083.71875 1601.890625 2079.011719 1603.488281 2074.261719 "/>
<path fill-rule="nonzero" fill="rgb(31.12793%, 8.030701%, 11.557007%)" fill-opacity="1" d="M 2170.730469 859.449219 L 2138.671875 863.121094 C 2145.71875 864.621094 2152.769531 866.121094 2159.890625 867.660156 C 2163.550781 865 2167.148438 862.238281 2170.730469 859.449219 "/>
<path fill-rule="nonzero" fill="rgb(31.12793%, 8.030701%, 11.557007%)" fill-opacity="1" d="M 2063.71875 919.300781 L 2043.199219 912.148438 C 2043.171875 910.699219 2043.101562 909.25 2042.980469 907.820312 L 2106.230469 900.570312 C 2124.910156 891.011719 2142.871094 880.050781 2159.890625 867.660156 C 2152.769531 866.121094 2145.71875 864.621094 2138.671875 863.121094 L 2031.261719 875.441406 C 2019.339844 858.488281 1999.671875 847.390625 1977.371094 847.390625 C 1973.269531 847.390625 1969.269531 847.808594 1965.378906 848.53125 C 1973.628906 879.300781 1984.699219 909.199219 1998.589844 937.761719 C 2020.859375 933.511719 2042.601562 927.191406 2063.71875 919.300781 "/>
<path fill-rule="nonzero" fill="rgb(90.803528%, 12.324524%, 16.902161%)" fill-opacity="1" d="M 2238.78125 885.371094 L 2437.878906 862.539062 C 2455.640625 847.878906 2474.308594 834.441406 2493.820312 822.398438 L 2170.730469 859.449219 C 2167.148438 862.238281 2163.550781 865 2159.890625 867.660156 C 2185.800781 873.289062 2212.148438 879.210938 2238.78125 885.371094 "/>
<path fill-rule="nonzero" fill="rgb(90.803528%, 12.324524%, 16.902161%)" fill-opacity="1" d="M 2159.890625 867.660156 C 2142.871094 880.050781 2124.910156 891.011719 2106.230469 900.570312 L 2238.78125 885.371094 C 2212.148438 879.210938 2185.800781 873.289062 2159.890625 867.660156 "/>
<path fill-rule="nonzero" fill="rgb(90.803528%, 12.324524%, 16.902161%)" fill-opacity="1" d="M 2035.210938 944.828125 L 2236.191406 1014.738281 C 2236.578125 1023.671875 2238.730469 1032.121094 2242.328125 1039.769531 L 2133.070312 1107.488281 C 2142.339844 1115.011719 2151.878906 1122.25 2161.75 1129.128906 L 2264.101562 1065.699219 C 2270.988281 1070.550781 2278.898438 1073.96875 2287.390625 1075.878906 C 2302.320312 1034.96875 2322.070312 997.160156 2345.800781 962.859375 C 2334.148438 952.378906 2318.828125 945.929688 2301.921875 945.929688 C 2276.351562 945.929688 2254.230469 960.519531 2243.308594 981.808594 L 2063.71875 919.300781 C 2042.601562 927.191406 2020.859375 933.511719 1998.589844 937.761719 C 2003.5 947.890625 2008.859375 957.789062 2014.441406 967.570312 C 2023.011719 961.710938 2030.210938 953.980469 2035.210938 944.828125 "/>
<path fill-rule="nonzero" fill="rgb(90.803528%, 12.324524%, 16.902161%)" fill-opacity="1" d="M 3383.058594 1622.96875 L 3379.078125 1664.578125 C 3378.308594 1664.550781 3377.558594 1664.460938 3376.789062 1664.460938 C 3364.828125 1664.460938 3353.640625 1667.699219 3343.96875 1673.269531 L 3275.308594 1594.929688 C 3253.769531 1588.269531 3232.429688 1580.808594 3211.238281 1572.671875 L 3320.109375 1696.878906 C 3314.300781 1706.699219 3310.910156 1718.109375 3310.910156 1730.339844 C 3310.910156 1736.800781 3311.878906 1743.019531 3313.609375 1748.921875 L 2997.929688 1822.851562 C 2991.28125 1835.789062 2984.550781 1848.851562 2977.78125 1861.980469 L 3332.410156 1778.929688 C 3335.578125 1781.839844 3339.03125 1784.421875 3342.730469 1786.671875 L 3238.101562 1945.171875 C 3227.851562 1938.589844 3215.679688 1934.730469 3202.601562 1934.730469 C 3173.550781 1934.730469 3148.941406 1953.558594 3140.179688 1979.660156 L 2950.460938 1914.808594 C 2945.28125 1924.800781 2940.070312 1934.828125 2934.839844 1944.878906 L 3138.179688 2014.378906 C 3144.519531 2044.160156 3170.941406 2066.5 3202.601562 2066.5 C 3238.988281 2066.5 3268.480469 2037 3268.480469 2000.621094 C 3268.480469 1989.890625 3265.859375 1979.789062 3261.308594 1970.828125 L 3376.578125 1796.21875 C 3376.648438 1796.21875 3376.71875 1796.230469 3376.789062 1796.230469 C 3413.179688 1796.230469 3442.671875 1766.730469 3442.671875 1730.339844 C 3442.671875 1709.179688 3432.648438 1690.398438 3417.148438 1678.351562 L 3425.308594 1631.628906 C 3411.179688 1628.921875 3397.101562 1626.019531 3383.058594 1622.96875 "/>
<path fill-rule="nonzero" fill="rgb(90.803528%, 12.324524%, 16.902161%)" fill-opacity="1" d="M 3373.671875 1475.261719 C 3372.289062 1476.449219 3370.941406 1477.660156 3369.660156 1478.960938 L 3225.359375 1418.058594 C 3221.519531 1428.628906 3217.398438 1439.03125 3212.929688 1449.179688 L 3352.941406 1508.28125 C 3351.5 1513.691406 3350.660156 1519.351562 3350.660156 1525.21875 C 3350.660156 1550.890625 3365.371094 1573.078125 3386.800781 1583.949219 L 3383.058594 1622.96875 C 3397.101562 1626.019531 3411.179688 1628.921875 3425.308594 1631.628906 L 3432.75 1589.011719 C 3461.28125 1581.78125 3482.429688 1556.011719 3482.429688 1525.21875 C 3482.429688 1488.839844 3452.929688 1459.339844 3416.539062 1459.339844 C 3412.179688 1459.339844 3407.929688 1459.789062 3403.800781 1460.589844 L 3361.488281 1369.628906 C 3345.679688 1359.878906 3329.21875 1350.941406 3312.101562 1342.890625 L 3373.671875 1475.261719 "/>
<path fill-rule="nonzero" fill="rgb(90.803528%, 12.324524%, 16.902161%)" fill-opacity="1" d="M 3170.480469 1526.160156 L 3211.238281 1572.671875 C 3232.429688 1580.808594 3253.769531 1588.269531 3275.308594 1594.929688 L 3189.058594 1496.519531 C 3183.210938 1506.691406 3176.960938 1516.519531 3170.480469 1526.160156 "/>
<path fill-rule="nonzero" fill="rgb(90.803528%, 12.324524%, 16.902161%)" fill-opacity="1" d="M 2871.429688 1887.800781 C 2871.441406 1887.511719 2871.480469 1887.21875 2871.480469 1886.929688 C 2871.480469 1886.910156 2871.480469 1886.898438 2871.480469 1886.878906 L 2977.78125 1861.980469 C 2984.550781 1848.851562 2991.28125 1835.789062 2997.929688 1822.851562 L 2862.890625 1854.46875 C 2851.808594 1834.96875 2831.089844 1821.699219 2807.199219 1821.128906 L 2783.828125 1745.800781 C 2772.261719 1746.441406 2760.648438 1746.769531 2748.988281 1746.589844 L 2774.511719 1828.851562 C 2755.628906 1838.96875 2742.261719 1858.011719 2740.039062 1880.339844 L 2611.960938 1904.691406 C 2614.441406 1915.628906 2617.269531 1926.460938 2620.480469 1937.179688 L 2745.308594 1913.449219 C 2755.519531 1936.621094 2778.648438 1952.808594 2805.589844 1952.808594 C 2829.859375 1952.808594 2851 1939.660156 2862.429688 1920.128906 L 2934.839844 1944.878906 C 2940.070312 1934.828125 2945.28125 1924.800781 2950.460938 1914.808594 L 2871.429688 1887.800781 "/>
<path fill-rule="nonzero" fill="rgb(31.12793%, 8.030701%, 11.557007%)" fill-opacity="1" d="M 3170.480469 1526.160156 C 3176.960938 1516.519531 3183.210938 1506.691406 3189.058594 1496.519531 L 3172.679688 1477.828125 C 3167.511719 1488.191406 3162.078125 1499.058594 3156.5 1510.210938 L 3170.480469 1526.160156 "/>
<path fill-rule="nonzero" fill="rgb(31.12793%, 8.030701%, 11.557007%)" fill-opacity="1" d="M 3191.441406 1440.121094 L 3212.929688 1449.179688 C 3217.398438 1439.03125 3221.519531 1428.628906 3225.359375 1418.058594 L 3206.351562 1410.039062 C 3201.691406 1419.449219 3196.71875 1429.480469 3191.441406 1440.121094 "/>
<path fill-rule="nonzero" fill="rgb(31.12793%, 8.030701%, 11.557007%)" fill-opacity="1" d="M 2985.019531 1427.800781 C 2977.191406 1419.75 2969.558594 1411.46875 2962.210938 1402.921875 L 2718.128906 1577.859375 L 2661.878906 1553.109375 C 2656.511719 1562.859375 2651.398438 1572.820312 2646.648438 1583.019531 L 2706.390625 1609.308594 L 2748.988281 1746.589844 C 2760.648438 1746.769531 2772.261719 1746.441406 2783.828125 1745.800781 L 2739.710938 1603.621094 L 2985.019531 1427.800781 "/>
<path fill-rule="nonzero" fill="rgb(31.12793%, 8.030701%, 11.557007%)" fill-opacity="1" d="M 3072.429688 1353.53125 L 3105.570312 1295.128906 C 3092.449219 1294.949219 3079.398438 1295.410156 3066.410156 1296.261719 L 3041.351562 1340.410156 L 3034.671875 1337.589844 L 2976.039062 1310.628906 C 2959.789062 1314.769531 2943.789062 1319.71875 2928.089844 1325.449219 L 3014.710938 1365.289062 L 2962.210938 1402.921875 C 2969.558594 1411.46875 2977.191406 1419.75 2985.019531 1427.800781 L 3045.980469 1384.109375 L 3156.5 1510.210938 C 3162.078125 1499.058594 3167.511719 1488.191406 3172.679688 1477.828125 L 3109.210938 1405.410156 L 3191.441406 1440.121094 C 3196.71875 1429.480469 3201.691406 1419.449219 3206.351562 1410.039062 L 3072.429688 1353.53125 "/>
<path fill-rule="nonzero" fill="rgb(35.241699%, 17.301941%, 57.18689%)" fill-opacity="1" d="M 3126.820312 1060.941406 C 3123.320312 1067.488281 3120.960938 1074.710938 3119.839844 1082.339844 L 2979.96875 1113.011719 C 2997.980469 1120.628906 3015.351562 1128.269531 3031.980469 1135.910156 L 3123.589844 1115.820312 C 3128.839844 1129.28125 3138.371094 1140.558594 3150.519531 1148.03125 L 3129.199219 1185.601562 C 3139.269531 1191.429688 3148.871094 1197.25 3157.839844 1203.03125 L 3183.53125 1157.75 C 3184.011719 1157.761719 3184.46875 1157.820312 3184.949219 1157.820312 C 3198.269531 1157.820312 3210.640625 1153.839844 3221.011719 1147.039062 L 3254.988281 1220.109375 C 3251.339844 1153.328125 3234.238281 1088.539062 3205.53125 1029.378906 C 3199.050781 1027.25 3192.140625 1026.058594 3184.949219 1026.058594 C 3172.648438 1026.058594 3161.191406 1029.480469 3151.339844 1035.351562 L 2904.441406 921.488281 C 2899.910156 931.769531 2895.101562 941.859375 2889.949219 951.699219 L 3126.820312 1060.941406 "/>
<path fill-rule="nonzero" fill="rgb(35.241699%, 17.301941%, 57.18689%)" fill-opacity="1" d="M 2444.578125 1494.121094 L 2646.648438 1583.019531 C 2651.398438 1572.820312 2656.511719 1562.859375 2661.878906 1553.109375 L 2458.308594 1463.550781 C 2458.898438 1460.011719 2459.28125 1456.390625 2459.28125 1452.679688 C 2459.28125 1442.238281 2456.78125 1432.410156 2452.460938 1423.640625 L 2660.140625 1239 C 2664.558594 1239.929688 2669.128906 1240.441406 2673.828125 1240.441406 C 2688.859375 1240.441406 2702.671875 1235.351562 2713.75 1226.878906 L 2899.210938 1312.179688 C 2890.320312 1296.429688 2882.019531 1280.320312 2874.378906 1263.871094 L 2736.859375 1200.628906 L 2841 1177.789062 C 2837.621094 1167.109375 2834.519531 1156.351562 2831.628906 1145.539062 L 2739.070312 1165.839844 C 2737.5 1154.039062 2732.71875 1143.328125 2725.789062 1134.359375 C 2689.929688 1158.359375 2651.121094 1177.648438 2610.339844 1191.730469 C 2613.519531 1203.558594 2619.871094 1214.089844 2628.5 1222.289062 L 2430.539062 1398.289062 C 2420.941406 1391.710938 2409.488281 1387.691406 2397.148438 1386.988281 L 2361.03125 1211.511719 C 2349.078125 1209.390625 2337.140625 1206.691406 2325.210938 1203.660156 L 2364.308594 1393.640625 C 2352.75 1399.339844 2343.121094 1408.308594 2336.621094 1419.378906 L 2291.269531 1406.179688 C 2294.230469 1418.359375 2296.621094 1430.691406 2298.429688 1443.160156 L 2327.558594 1451.640625 C 2327.558594 1451.988281 2327.511719 1452.328125 2327.511719 1452.679688 C 2327.511719 1454.671875 2327.628906 1456.628906 2327.808594 1458.570312 L 2307.320312 1465.679688 C 2312.261719 1475.839844 2317.53125 1485.851562 2323.148438 1495.660156 L 2339.191406 1490.089844 C 2348.070312 1502.941406 2361.410156 1512.421875 2376.96875 1516.421875 L 2376.96875 1572.019531 C 2387.539062 1584.390625 2398.671875 1596.320312 2410.46875 1607.660156 L 2410.46875 1516.25 C 2424.078125 1512.601562 2435.960938 1504.761719 2444.578125 1494.121094 "/>
<path fill-rule="nonzero" fill="rgb(35.241699%, 17.301941%, 57.18689%)" fill-opacity="1" d="M 2976.039062 1310.628906 L 2874.378906 1263.871094 C 2882.019531 1280.320312 2890.320312 1296.429688 2899.210938 1312.179688 L 2928.089844 1325.449219 C 2943.789062 1319.71875 2959.789062 1314.769531 2976.039062 1310.628906 "/>
<path fill-rule="nonzero" fill="rgb(35.241699%, 17.301941%, 57.18689%)" fill-opacity="1" d="M 2841 1177.789062 L 3031.980469 1135.910156 C 3015.351562 1128.269531 2997.980469 1120.628906 2979.96875 1113.011719 L 2831.628906 1145.539062 C 2834.519531 1156.351562 2837.621094 1167.109375 2841 1177.789062 "/>
<path fill-rule="nonzero" fill="rgb(35.241699%, 17.301941%, 57.18689%)" fill-opacity="1" d="M 3105.570312 1295.128906 L 3157.839844 1203.03125 C 3148.871094 1197.25 3139.269531 1191.429688 3129.199219 1185.601562 L 3066.410156 1296.261719 C 3079.398438 1295.410156 3092.449219 1294.949219 3105.570312 1295.128906 "/>
<path fill-rule="nonzero" fill="rgb(35.241699%, 17.301941%, 57.18689%)" fill-opacity="1" d="M 2296.851562 1442.699219 L 2298.429688 1443.160156 C 2296.621094 1430.691406 2294.230469 1418.359375 2291.269531 1406.179688 L 2282.058594 1403.5 C 2286.441406 1416.78125 2291.371094 1429.851562 2296.851562 1442.699219 "/>
<path fill-rule="nonzero" fill="rgb(35.241699%, 17.301941%, 57.18689%)" fill-opacity="1" d="M 2570.070312 847.390625 L 2425.140625 931.519531 C 2440.371094 935.539062 2455.589844 939.621094 2470.800781 943.761719 L 2579.238281 880.800781 C 2590.699219 900.210938 2611.78125 913.269531 2635.949219 913.269531 C 2637.308594 913.269531 2638.628906 913.148438 2639.96875 913.070312 L 2648 994.980469 C 2659.648438 998.550781 2671.230469 1002.148438 2682.730469 1005.78125 L 2672.570312 902.148438 C 2685.78125 893.289062 2695.550781 879.761719 2699.648438 863.949219 L 2807.570312 913.71875 C 2808.300781 901.878906 2809.421875 890.078125 2810.820312 878.308594 L 2698.378906 826.460938 C 2689.628906 800.351562 2665.011719 781.5 2635.949219 781.5 C 2612.390625 781.5 2591.78125 793.910156 2580.128906 812.511719 L 2493.820312 822.398438 C 2474.308594 834.441406 2455.640625 847.878906 2437.878906 862.539062 L 2570.070312 847.390625 "/>
<path fill-rule="nonzero" fill="rgb(35.241699%, 17.301941%, 57.18689%)" fill-opacity="1" d="M 2889.949219 951.699219 C 2895.101562 941.859375 2899.910156 931.769531 2904.441406 921.488281 L 2810.820312 878.308594 C 2809.421875 890.078125 2808.300781 901.878906 2807.570312 913.71875 L 2889.949219 951.699219 "/>
<path fill-rule="nonzero" fill="rgb(35.241699%, 17.301941%, 57.18689%)" fill-opacity="1" d="M 2345.800781 962.859375 C 2322.070312 997.160156 2302.320312 1034.96875 2287.390625 1075.878906 C 2291.238281 1076.75 2295.179688 1077.398438 2299.261719 1077.558594 L 2325.210938 1203.660156 C 2337.140625 1206.691406 2349.078125 1209.390625 2361.03125 1211.511719 L 2331.988281 1070.390625 C 2338.589844 1066.988281 2344.519531 1062.53125 2349.589844 1057.210938 L 2608.109375 1177.828125 C 2608.339844 1182.621094 2609.128906 1187.261719 2610.339844 1191.730469 C 2651.121094 1177.648438 2689.929688 1158.359375 2725.789062 1134.359375 C 2717.570312 1123.71875 2706.28125 1115.589844 2693.109375 1111.558594 L 2682.730469 1005.78125 C 2671.230469 1002.148438 2659.648438 998.550781 2648 994.980469 L 2659.320312 1110.328125 C 2640.171875 1114.640625 2624.191406 1127.269531 2615.371094 1144.238281 L 2365.78125 1027.78125 C 2367.050781 1022.660156 2367.808594 1017.328125 2367.808594 1011.808594 C 2367.808594 1009.109375 2367.601562 1006.46875 2367.28125 1003.859375 L 2470.800781 943.761719 C 2455.589844 939.621094 2440.371094 935.539062 2425.140625 931.519531 L 2354.660156 972.441406 C 2352.050781 968.949219 2349.039062 965.78125 2345.800781 962.859375 "/>
</svg>
